<?xml version="1.0" standalone="no"?><!DOCTYPE svg PUBLIC "-//W3C//DTD SVG 1.1//EN" "http://www.w3.org/Graphics/SVG/1.1/DTD/svg11.dtd"><svg class="icon" width="200px" height="200.00px" viewBox="0 0 1024 1024" version="1.1" xmlns="http://www.w3.org/2000/svg"><path fill="#000000" d="M351.6 671.7c-20.1-20.1-35.6-39.9-56.4-39.9-12.3 0-26.5 7-44.6 25.1-48.6 48.6-106.9 158.7-74.9 190.7 6.4 6.4 15.8 9.2 27.3 9.2 46.1 0 124.5-45.1 163.4-84 48.6-48.7 17.2-69.1-14.8-101.1zM243.7 779.5c11.8-25 30.3-54.8 50.1-75.3 1 1.1 2 2.1 3 3.1 3.1 3.2 6.2 6.4 9.5 9.7 3.3 3.3 6.5 6.4 9.7 9.5 1 0.9 2 1.9 3.1 3-19.8 18.9-49.8 37.9-75.4 50zM686.2 236c-56.4 0-102.1 45.7-102.1 102.1 0 56.4 45.7 102.1 102.1 102.1 56.4 0 102.1-45.7 102.1-102.1 0-56.4-45.7-102.1-102.1-102.1z m0 140.1c-21 0-38-17.1-38-38s17.1-38 38-38c21 0 38 17.1 38 38s-17 38-38 38z"  /><path fill="#000000" d="M865.7 157.5c-20.1-20.1-54.7-29.4-97.1-29.4-109.4 0-270.8 62-369.8 161-16.5 16.5-30.7 33-42.9 49.3l-77.3-25c-1.7-0.6-3.5-0.8-5.2-0.8-5.5 0-10.7 2.6-14 7.3L139.7 490.7c-6.6 9.4-2.2 22.5 8.7 26l163 52.6c12.1 31.2 31.4 60 56.9 85.5 25.4 25.4 54.1 44.6 85.1 56.7L506 874.3c2.4 7.4 9.2 11.8 16.2 11.8 3.3 0 6.7-1 9.7-3.1l171-119.7c6.1-4.3 8.7-12 6.4-19.1l-24.8-76.7c16.5-12.3 33-26.5 49.6-43.1 137.4-137.3 206.6-391.9 131.6-466.9zM646.3 616.2l-36.7 27.4 14.1 43.6 14.1 43.7-90.3 63.2-33-102.2-9.3-28.9-28.3-11.1c-22.6-8.8-43.9-23.1-63.1-42.3-19.3-19.3-33.6-40.7-42.4-63.4l-11-28.4-29-9.4-102.5-33.1 63.2-90.3 44.3 14.3 43.6 14.1 27.4-36.7c10.8-14.4 23.2-28.7 36.9-42.4 89-89 234.9-142.2 324.5-142.2 32.6 0 48.2 7 51.8 10.7 33.3 33.3-1.1 245.9-131.6 376.3-13.9 13.8-28.3 26.3-42.7 37.1z"  /></svg>